<svg width="18" height="18" viewBox="0 0 18 18" fill="none" xmlns="http://www.w3.org/2000/svg">
<g clip-path="url(#clip0_1656_7924)">
<path d="M12.6839 17.3525H5.24038C4.05052 17.3525 3.08203 16.384 3.08203 15.1941V4.23638C3.08203 3.76597 3.44176 3.40625 3.91216 3.40625H14.0398C14.5102 3.40625 14.8699 3.76597 14.8699 4.23638V15.1665C14.8699 16.384 13.9014 17.3525 12.6839 17.3525ZM4.7423 5.06652V15.1665C4.7423 15.4432 4.96367 15.6646 5.24038 15.6646H12.6839C12.9606 15.6646 13.182 15.4432 13.182 15.1665V5.06652H4.7423Z" fill="#303030"/>
<path d="M12.3796 5.06702C11.9645 5.06702 11.6048 4.76264 11.5494 4.3199L11.4111 2.881C11.3834 2.57662 11.1344 2.38292 10.8577 2.38292H7.12205C6.81767 2.38292 6.5963 2.60429 6.56863 2.881L6.4026 4.3199C6.34726 4.76264 5.95986 5.09469 5.48945 5.06702C5.04672 5.01168 4.71466 4.62428 4.74233 4.15387L4.88069 2.71498C4.99137 1.58046 5.95986 0.722656 7.09438 0.722656H10.83C11.9645 0.722656 12.933 1.58046 13.0437 2.71498L13.182 4.15387C13.2374 4.59661 12.9053 5.01168 12.4349 5.06702C12.4349 5.06702 12.4072 5.06702 12.3796 5.06702Z" fill="#303030"/>
<path d="M16.4197 5.06652H1.50494C1.03453 5.06652 0.674805 4.70679 0.674805 4.23638C0.674805 3.76597 1.03453 3.40625 1.50494 3.40625H16.4197C16.8901 3.40625 17.2498 3.76597 17.2498 4.23638C17.2498 4.70679 16.8901 5.06652 16.4197 5.06652Z" fill="#303030"/>
</g>
<defs>
<clipPath id="clip0_1656_7924">
<rect width="16.575" height="16.6303" fill="white" transform="translate(0.674805 0.722656)"/>
</clipPath>
</defs>
</svg>
