<svg width="14" height="20" viewBox="0 0 14 20" fill="none" xmlns="http://www.w3.org/2000/svg">
<path d="M6.99756 0.622559C3.20801 0.622559 0.123781 3.70802 0.123779 7.49756C0.123777 14.1655 6.6106 19.2346 6.6106 19.2346C6.83848 19.4161 7.16152 19.4161 7.3894 19.2346C7.3894 19.2346 13.8775 14.1655 13.8774 7.49756C13.8774 3.70802 10.7871 0.622559 6.99756 0.622559ZM6.99756 4.37378C8.71604 4.37378 10.1262 5.77908 10.1262 7.49756C10.1262 9.21606 8.71605 10.625 6.99756 10.625C5.27906 10.625 3.87377 9.21606 3.87378 7.49756C3.87378 5.77908 5.27908 4.37378 6.99756 4.37378Z" fill="#303030"/>
</svg>
