<svg width="18" height="18" viewBox="0 0 18 18" fill="none" xmlns="http://www.w3.org/2000/svg">
<g clip-path="url(#clip0_1019_4192)">
<path d="M14.9231 17.2496H2.32689C1.85832 17.2496 1.5 16.8921 1.5 16.4246C1.5 15.9571 1.85832 15.5996 2.32689 15.5996H14.9231C15.3917 15.5996 15.75 15.9571 15.75 16.4246C15.75 16.8921 15.3917 17.2496 14.9231 17.2496Z" fill="#303030"/>
<path d="M2.32694 13.95C2.134 13.95 1.91349 13.8675 1.77568 13.73C1.63786 13.5925 1.55518 13.4 1.55518 13.18V10.1275C1.55518 9.93504 1.63786 9.74254 1.77568 9.57754L10.4029 0.970039C10.706 0.667539 11.2022 0.667539 11.4778 0.970039L14.5648 4.05004C14.868 4.35254 14.868 4.84754 14.5648 5.12254L5.93767 13.73C5.79986 13.8675 5.60692 13.95 5.38641 13.95H2.32694ZM3.0987 10.43V12.41H5.08322L12.9386 4.57254L10.9541 2.59254L3.0987 10.43Z" fill="#303030"/>
</g>
<defs>
<clipPath id="clip0_1019_4192">
<rect width="14.25" height="16.5" fill="white" transform="translate(1.5 0.75)"/>
</clipPath>
</defs>
</svg>
