<svg width="18" height="18" viewBox="0 0 18 18" fill="none" xmlns="http://www.w3.org/2000/svg">
<path d="M1.5332 12.1999L0.826096 11.4928L0.533203 11.7857V12.1999H1.5332ZM12.1999 1.5332L12.907 0.826096C12.5165 0.435572 11.8833 0.435572 11.4928 0.826096L12.1999 1.5332ZM16.4665 5.79987L17.1736 6.50698C17.5642 6.11645 17.5642 5.48329 17.1736 5.09276L16.4665 5.79987ZM5.79987 16.4665V17.4665H6.21408L6.50698 17.1736L5.79987 16.4665ZM1.5332 16.4665H0.533203C0.533203 17.0188 0.980918 17.4665 1.5332 17.4665L1.5332 16.4665ZM2.24031 12.907L12.907 2.24031L11.4928 0.826096L0.826096 11.4928L2.24031 12.907ZM11.4928 2.24031L15.7594 6.50698L17.1736 5.09276L12.907 0.826096L11.4928 2.24031ZM15.7594 5.09276L5.09276 15.7594L6.50698 17.1736L17.1736 6.50698L15.7594 5.09276ZM5.79987 15.4665H1.5332V17.4665H5.79987V15.4665ZM2.5332 16.4665V12.1999H0.533203V16.4665H2.5332Z" fill="#303030"/>
</svg>
