<svg width="20" height="20" viewBox="0 0 20 20" fill="none" xmlns="http://www.w3.org/2000/svg">
<g clip-path="url(#clip0_1170_4197)">
<path d="M10.9155 19.1668H7.74644C7.24761 19.1668 6.86616 18.7689 6.86616 18.2486V12.0355H5.04691C4.54808 12.0355 4.16663 11.6376 4.16663 11.1173V7.99543C4.16663 7.47512 4.54808 7.07724 5.04691 7.07724H6.86616V6.49571C6.86616 3.37384 9.3016 0.833496 12.2946 0.833496H15.8157C16.3145 0.833496 16.696 1.23138 16.696 1.75169V5.0572C16.696 5.57751 16.3145 5.9754 15.8157 5.9754H12.7934C12.2359 5.9754 11.7664 6.4651 11.7664 7.04663V7.10784H13.791C14.2899 7.10784 14.6713 7.50573 14.6713 8.02604V11.1479C14.6713 11.6682 14.2899 12.0661 13.791 12.0661H11.7957V18.2792C11.7957 18.7689 11.3849 19.1668 10.9155 19.1668ZM8.62672 17.3304H10.0352V11.1173C10.0352 10.597 10.4166 10.1991 10.9155 10.1991H12.9401V8.91363H10.9155C10.4166 8.91363 10.0352 8.51574 10.0352 7.99543V7.01602C10.0352 5.42448 11.2676 4.1084 12.8227 4.1084H14.9354V2.66989H12.2946C10.2699 2.66989 8.62672 4.38386 8.62672 6.49571V7.99543C8.62672 8.51574 8.24527 8.91363 7.74644 8.91363H5.92719V10.1991H7.74644C8.24527 10.1991 8.62672 10.597 8.62672 11.1173V17.3304Z" fill="#303030"/>
</g>
<defs>
<clipPath id="clip0_1170_4197">
<rect width="12.5" height="18.3333" fill="white" transform="translate(4.16663 0.833496)"/>
</clipPath>
</defs>
</svg>
