<svg width="18" height="18" viewBox="0 0 18 18" fill="none" xmlns="http://www.w3.org/2000/svg">
<g clip-path="url(#clip0_1019_4186)">
<path d="M9.00001 9.38262C8.82501 9.38262 8.65001 9.33291 8.52501 9.20864L1.77501 3.56683C1.45001 3.29344 1.42501 2.82121 1.67501 2.52297C1.95001 2.19987 2.42501 2.17502 2.72501 2.42355L9.00001 7.64285L15.275 2.42355C15.6 2.15016 16.075 2.19987 16.325 2.52297C16.6 2.84607 16.55 3.31829 16.225 3.56683L9.50001 9.20864C9.35001 9.30806 9.17501 9.38262 9.00001 9.38262Z" fill="#303030"/>
<path d="M15.75 15H2.25C1.825 15 1.5 14.6769 1.5 14.2544V2.99561C1.5 2.5731 1.825 2.25 2.25 2.25H15.75C16.175 2.25 16.5 2.5731 16.5 2.99561V14.2544C16.5 14.6769 16.175 15 15.75 15ZM3 13.5088H15V3.74123H3V13.5088Z" fill="#303030"/>
</g>
<defs>
<clipPath id="clip0_1019_4186">
<rect width="15" height="12.75" fill="white" transform="translate(1.5 2.25)"/>
</clipPath>
</defs>
</svg>
