<svg width="18" height="18" viewBox="0 0 18 18" fill="none" xmlns="http://www.w3.org/2000/svg">
<g clip-path="url(#clip0_1019_4189)">
<g clip-path="url(#clip1_1019_4189)">
<path d="M14.995 17.3009C7.1575 17.3009 0.75 10.8934 0.75 3.02844C0.75 1.79094 1.7675 0.773438 3.005 0.773438H5.81C6.7175 0.773438 7.4325 1.48844 7.4325 2.39594C7.4325 3.57844 7.68 4.70594 8.175 5.77844C8.3125 6.08094 8.2575 6.46594 8.01 6.71344L6.8 7.89594C6.69 8.00594 6.635 8.17094 6.635 8.33594C6.635 8.50094 6.69 8.63844 6.8 8.77594L9.2475 11.2234C9.4675 11.4434 9.88 11.4434 10.1 11.2234L11.2825 10.0409C11.53 9.79344 11.8875 9.73844 12.2175 9.87594C13.29 10.3709 14.445 10.6184 15.655 10.6184C16.535 10.6184 17.2775 11.3334 17.2775 12.2409V15.0459C17.25 16.2834 16.26 17.3009 14.995 17.3009ZM3.005 2.42344C2.675 2.42344 2.4 2.69844 2.4 3.02844C2.4 9.98594 8.065 15.6509 14.995 15.6509C15.325 15.6509 15.6 15.3759 15.6 15.0459V12.2684C14.3625 12.2684 13.18 12.0484 12.0525 11.5809L11.2825 12.3509C10.87 12.7634 10.2925 13.0109 9.6875 13.0109C9.0825 13.0109 8.5325 12.7634 8.0925 12.3509L5.645 9.90344C5.2325 9.49094 4.985 8.91344 4.985 8.30844C4.985 7.70344 5.2325 7.15344 5.645 6.71344L6.4425 5.91594C6.0025 4.78844 5.7825 3.60594 5.7825 2.39594H3.005V2.42344Z" fill="#303030"/>
</g>
</g>
<defs>
<clipPath id="clip0_1019_4189">
<rect width="18" height="18" fill="white"/>
</clipPath>
<clipPath id="clip1_1019_4189">
<rect width="16.5" height="16.5275" fill="white" transform="translate(0.75 0.773438)"/>
</clipPath>
</defs>
</svg>
