<svg width="16" height="18" viewBox="0 0 16 18" fill="none" xmlns="http://www.w3.org/2000/svg">
<path d="M11.5 1.20127L12.4597 3.29767L12.5779 3.55589L12.8602 3.58662L14.8176 3.79965L13.2269 5.19924L13.0087 5.39116L13.0675 5.67572L13.5368 7.949L11.767 6.83102L11.5 6.66232L11.233 6.83102L9.46323 7.949L9.93253 5.67572L9.99128 5.39116L9.77313 5.19924L8.18235 3.79965L10.1398 3.58662L10.4221 3.55589L10.5403 3.29767L11.5 1.20127Z" stroke="white"/>
<path d="M5.5 8.20127L6.77394 10.9842L6.89215 11.2425L7.17448 11.2732L9.81765 11.5608L7.68401 13.438L7.46587 13.63L7.52461 13.9145L8.15106 16.949L5.76704 15.443L5.5 15.2743L5.23296 15.443L2.84894 16.949L3.47539 13.9145L3.53413 13.63L3.31599 13.438L1.18235 11.5608L3.82552 11.2732L4.10785 11.2425L4.22606 10.9842L5.5 8.20127Z" stroke="white"/>
</svg>
