<svg width="40" height="40" viewBox="0 0 40 40" fill="none" xmlns="http://www.w3.org/2000/svg">
<path fill-rule="evenodd" clip-rule="evenodd" d="M32.5 20C32.5 26.9035 26.9035 32.5 20 32.5C13.0964 32.5 7.5 26.9035 7.5 20C7.5 13.0964 13.0964 7.5 20 7.5C26.9035 7.5 32.5 13.0964 32.5 20ZM35 20C35 28.2843 28.2843 35 20 35C11.7157 35 5 28.2843 5 20C5 11.7157 11.7157 5 20 5C28.2843 5 35 11.7157 35 20ZM15.625 17.5C16.6605 17.5 17.5 16.6605 17.5 15.625C17.5 14.5895 16.6605 13.75 15.625 13.75C14.5895 13.75 13.75 14.5895 13.75 15.625C13.75 16.6605 14.5895 17.5 15.625 17.5ZM26.25 15.625C26.25 16.6605 25.4105 17.5 24.375 17.5C23.3395 17.5 22.5 16.6605 22.5 15.625C22.5 14.5895 23.3395 13.75 24.375 13.75C25.4105 13.75 26.25 14.5895 26.25 15.625ZM20 22.5C23.0362 22.5 25 24.4248 25 26.25H27.5C27.5 22.5523 23.8675 20 20 20C16.1326 20 12.5 22.5523 12.5 26.25H15C15 24.4248 16.9638 22.5 20 22.5Z" fill="#080341"/>
</svg>
